<?xml version="1.0" encoding="utf-8"?>
<!-- Generator: Adobe Illustrator 16.0.0, SVG Export Plug-In . SVG Version: 6.00 Build 0)  -->
<!DOCTYPE svg PUBLIC "-//W3C//DTD SVG 1.1//EN" "http://www.w3.org/Graphics/SVG/1.1/DTD/svg11.dtd">
<svg version="1.1" id="Calque_1" xmlns="http://www.w3.org/2000/svg" xmlns:xlink="http://www.w3.org/1999/xlink" x="0px" y="0px"
	 width="800px" height="800px" viewBox="0 0 800 800" enable-background="new 0 0 800 800" xml:space="preserve">
<path fill="#0197CD" d="M758.961,215.218L582.678,39.487c-15.63-15.598-44.696-27.829-66.145-27.829H287.087
	c-22.105,0-51.688,12.231-67.317,27.829L43.525,215.21c-15.648,15.606-27.899,45.17-27.899,67.275v229.416
	c0,22.129,12.25,51.645,27.942,67.243L219.75,754.417c15.648,15.591,45.231,27.798,67.336,27.798h27.255
	c22.082,0,51.479-12.021,66.882-27.33c15.424-15.319,27.818-44.672,27.881-66.756v-57.595l6.407-0.023
	c22.063-0.14,51.646-12.433,67.274-28.007l49.274-48.973c15.653-15.59,27.943-45.131,27.943-67.236v-78.542
	c0-24.229-19.727-43.956-43.933-43.956h-21.959h-0.02l0.02-124.124c0-14.323-3.507-25.699-11.951-33.965
	c-5.906-5.777-13.053-8.849-20.637-8.849c-7.563,0-14.701,3.071-20.633,8.849c-8.421,8.266-11.933,19.642-11.933,33.965v124.124
	h-55.262l0.023-124.124c0-14.323-3.506-25.699-11.955-33.965c-5.906-5.777-13.051-8.849-20.634-8.849
	c-7.565,0-14.711,3.071-20.617,8.849c-8.444,8.266-11.952,19.642-11.952,33.965v124.124h-21.935
	c-24.245,0-43.952,19.727-43.952,43.956v79.374c0,22.106,12.29,51.63,27.981,67.221l49.212,48.769
	c15.586,15.467,45.044,27.543,67.108,27.543l6.644-0.039v57.424c-0.089,17.906-10.886,43.45-23.33,55.829
	c-12.434,12.371-38.07,22.837-55.95,22.837h-27.255c-17.895,0-43.718-10.668-56.393-23.279L54.497,568.149
	c-12.67-12.604-23.366-38.365-23.366-56.248V282.485c0-17.892,10.695-43.667,23.366-56.28L230.741,50.475
	c12.647-12.64,38.451-23.289,56.346-23.289h229.446c17.27,0,42.549,10.649,55.219,23.289L748.02,226.213
	c12.662,12.62,23.362,38.396,23.362,56.272v229.416c0,17.883-10.734,43.645-23.386,56.248L571.795,743.431
	c-12.693,12.611-38.532,23.279-56.421,23.279h-90.49c-4.292,0-7.774,3.468-7.774,7.73c0,4.291,3.482,7.774,7.774,7.774h90.49
	c22.13,0,51.713-12.231,67.347-27.798l176.2-175.272c15.691-15.599,27.962-45.138,27.962-67.243V282.485
	C786.883,260.38,774.637,230.84,758.961,215.218z M451.983,216.625c2.061-1.936,5.388-4.238,9.541-4.238
	c4.163,0,7.479,2.302,9.544,4.238c5.649,5.381,7.523,13.857,7.523,24.121v123.051h-3.931h-26.499h-3.651l-0.043-123.051
	C444.468,230.482,446.314,222.007,451.983,216.625z M324.073,240.746c0-10.264,1.846-18.739,7.522-24.121
	c2.057-1.936,5.374-4.238,9.536-4.238c4.161,0,7.478,2.302,9.541,4.238c5.669,5.381,7.516,13.857,7.516,24.121v123.051h-34.115
	V240.746z M386.978,615.131c-17.861,0-43.575-10.544-56.164-23.024l-49.228-48.792c-12.689-12.604-23.408-38.319-23.408-56.188
	v-79.374c0-15.676,12.779-28.444,28.451-28.444h229.442c15.672,0,28.428,12.768,28.428,28.444v78.542
	c0,17.854-10.696,43.613-23.387,56.226l-49.271,48.972c-12.674,12.629-38.536,23.553-56.412,23.661L386.978,615.131z"/>
</svg>
